# xmcd
#
# Track frame offsets:
#	150
#	16521
#	29999
#	43870
#	55431
#	67884
#	81892
#	96035
#	108359
#	122226
#	137627
#	150833
#	167082
#	178031
#	192322
#	206399
#	221887
#	235740
#	250589
#	262925
#	274272
#	287790
#	302536
#	317547
#	332645
#
# Disc length: 4716 seconds
#
# Revision: 0
# Processed by: cddbd v1.5.2PL0 Copyright (c) Steve Scherf et al.
# Submitted via: EasyCDDAExtractor 16.0.6.1
#
DISCID=5e126a19
DTITLE=Κύπριος Στράτος - Συλλογή 45 στροφών-Κύπριος Στράτος 2
DYEAR=2008
DGENRE=Λαϊκή
TTITLE0=Κύπριος Στράτος - Δεν με χωράει πια η γη
TTITLE1=Κύπριος Στράτος - Δεν σε θέλω, δεν σε θέλω
TTITLE2=Κύπριος Στράτος-Σακελλαρίου Ρίτα - Να βάλεις τα καινούργια σου
TTITLE3=Κύπριος Στράτος - Ο φίλος αγοράζεται
TTITLE4=Κύπριος Στράτος - Ψηλά στον ήλιο
TTITLE5=Κύπριος Στράτος - Ρολόϊ, κομπολόϊ
TTITLE6=Κύπριος Στράτος - Το κορίτσι από τον συνοικισμό
TTITLE7=Κύπριος Στράτος - Το Βέλγιο και η Γερμανία
TTITLE8=Κύπριος Στράτος - Άλλαξε δρομολόγιο
TTITLE9=Κύπριος Στράτος-Σιδέρη Σοφία - Τώρα σε αγαπώ
TTITLE10=Κύπριος Στράτος-Σιδέρη Σοφία - Πάρε την πίκρα μου
TTITLE11=Κύπριος Στράτος - Έρημος κι απελπισμένος
TTITLE12=Κύπριος Στράτος - Δεν μπορώ να σε μισήσω
TTITLE13=Κύπριος Στράτος-Σιδέρη Σοφία - Εγώ κακός δεν ήμουνα (Εγώ θα σε γλυτώσ
TTITLE13=ω)
TTITLE14=Κύπριος Στράτος - Είμαι ο ιππότης ο Ρωμιός
TTITLE15=Κύπριος Στράτος - Ο κόσμος άλλαξε
TTITLE16=Κύπριος Στράτος - Παλάτια χρυσοστόλιστα
TTITLE17=Κύπριος Στράτος - Πατέρα μου δεν φεύγω
TTITLE18=Κύπριος Στράτος - Πώς αντέχεις, πώς βαστάς
TTITLE19=Κύπριος Στράτος - Ψέματα, ψέματα
TTITLE20=Κύπριος Στράτος - Σαν την δική μου
TTITLE21=Κύπριος Στράτος - Σήμερα ήλιε να μην φωτίσεις
TTITLE22=Κύπριος Στράτος - Στα βαριά λεωφορεία
TTITLE23=Κύπριος Στράτος - Καϋμός και απελπισία
TTITLE24=Κύπριος Στράτος - Ο καλός καλό δεν έχει
EXTD=
EXTT0=
EXTT1=
EXTT2=
EXTT3=
EXTT4=
EXTT5=
EXTT6=
EXTT7=
EXTT8=
EXTT9=
EXTT10=
EXTT11=
EXTT12=
EXTT13=
EXTT14=
EXTT15=
EXTT16=
EXTT17=
EXTT18=
EXTT19=
EXTT20=
EXTT21=
EXTT22=
EXTT23=
EXTT24=
PLAYORDER=
